<?xml version="1.0" standalone="no"?>
<!DOCTYPE svg PUBLIC "-//W3C//DTD SVG 20010904//EN"
 "http://www.w3.org/TR/2001/REC-SVG-20010904/DTD/svg10.dtd">
<svg version="1.0" xmlns="http://www.w3.org/2000/svg"
 width="300.000000pt" height="300.000000pt" viewBox="0 0 300.000000 300.000000"
 preserveAspectRatio="xMidYMid meet">
<metadata>
Created by potrace 1.11, written by Peter Selinger 2001-2013
</metadata>
<g transform="translate(0.000000,300.000000) scale(0.100000,-0.100000)"
fill="#000000" stroke="none">
<path d="M830 2718 c0 -4 -7 -8 -15 -8 -8 0 -15 -7 -15 -16 0 -8 -5 -12 -11
-9 -6 4 -13 -2 -16 -14 -3 -12 -8 -21 -12 -21 -4 0 -7 -34 -6 -75 1 -54 5 -81
17 -94 9 -11 13 -23 10 -27 -4 -4 1 -4 11 -1 9 4 17 2 17 -4 0 -6 5 -7 10 -4
6 3 10 1 10 -6 0 -8 4 -8 15 1 8 7 15 8 15 3 0 -5 7 -10 15 -10 8 0 15 5 15
10 0 5 7 4 15 -3 11 -9 15 -9 15 -1 0 7 5 9 12 5 17 -11 58 -11 58 -1 0 5 6 5
13 -2 10 -8 17 -7 26 2 7 7 14 8 19 2 10 -14 42 -15 42 -2 0 7 4 7 12 -1 14
-14 32 -16 24 -3 -3 4 7 6 22 4 62 -9 82 -9 82 0 0 5 6 5 13 -2 10 -8 17 -7
26 2 7 7 14 8 19 2 9 -13 42 -16 42 -4 0 6 7 6 18 0 10 -5 24 -6 32 -1 8 5 21
5 30 0 11 -6 21 -5 28 2 7 7 12 8 12 2 0 -5 9 -10 20 -10 11 0 20 4 20 8 0 5
8 4 18 -1 10 -5 24 -6 32 -1 8 5 21 5 30 0 11 -6 21 -5 28 2 7 7 12 8 12 2 0
-5 9 -10 20 -10 11 0 20 4 20 8 0 5 8 4 18 -1 10 -5 24 -6 32 -1 8 5 21 5 30
0 11 -6 21 -5 28 2 7 7 12 8 12 2 0 -5 9 -10 20 -10 11 0 20 4 20 8 0 5 8 4
18 -1 10 -6 24 -6 32 -1 8 5 18 6 23 3 15 -9 67 -9 67 0 0 5 6 5 13 -2 10 -8
17 -7 26 2 7 7 14 8 19 2 9 -13 42 -15 42 -3 0 6 6 5 15 -2 9 -8 15 -9 15 -2
0 6 9 9 19 7 11 -2 22 3 25 12 4 8 13 13 21 10 9 -4 12 -1 8 9 -3 7 -1 14 5
14 5 0 13 10 17 23 10 33 12 117 2 117 -4 0 -5 5 -2 10 9 14 -4 52 -16 45 -5
-4 -12 1 -15 9 -3 9 -12 16 -20 16 -8 0 -14 6 -14 13 0 8 -4 7 -10 -3 -5 -8
-10 -10 -10 -4 0 7 -196 10 -630 10 -346 0 -630 -4 -630 -8z"/>
<path d="M798 1638 c-7 -4 -8 -8 -3 -8 6 -1 -3 -8 -19 -16 -20 -11 -25 -18
-16 -24 7 -4 8 -10 3 -13 -13 -8 -14 -1247 -2 -1247 5 0 9 -7 9 -16 0 -8 4
-13 9 -10 5 3 11 -4 14 -15 3 -12 10 -18 17 -14 6 4 9 1 8 -7 -2 -10 19 -13
90 -15 68 -1 90 2 86 10 -5 8 -2 8 7 0 7 -7 19 -13 27 -13 8 0 10 5 6 13 -6
10 -4 10 7 0 7 -7 19 -13 27 -13 8 0 10 5 6 13 -6 9 -5 9 7 0 20 -16 402 -16
392 1 -3 6 -1 6 8 -1 17 -17 42 -17 33 0 -6 9 -4 9 7 0 17 -17 43 -17 33 -1
-6 10 -5 10 7 1 20 -16 402 -16 393 1 -4 7 -2 6 7 -1 7 -7 19 -13 27 -13 8 0
10 5 6 13 -6 10 -4 10 7 0 7 -7 19 -13 27 -13 8 0 10 5 6 13 -6 9 -5 9 7 0 17
-13 141 -15 133 -1 -3 4 0 8 6 8 13 0 45 30 45 42 0 5 5 12 11 16 13 8 15 143
2 136 -4 -3 -8 3 -8 14 0 21 -55 66 -70 57 -6 -3 -10 -2 -10 4 0 5 -9 8 -20 6
-11 -2 -20 1 -20 7 0 7 -6 6 -15 -2 -12 -10 -15 -10 -15 1 0 11 -3 11 -11 -1
-8 -11 -12 -12 -16 -3 -3 9 -10 10 -24 3 -14 -8 -19 -7 -19 1 0 8 -4 8 -15 -1
-12 -10 -15 -10 -15 1 0 9 -3 10 -8 4 -8 -12 -62 -14 -62 -2 0 5 -5 5 -11 1
-18 -11 -159 -10 -159 1 0 7 -3 7 -8 0 -8 -12 -82 -14 -82 -2 0 4 -9 3 -19 -3
-14 -7 -22 -7 -27 1 -4 8 -9 7 -16 -2 -7 -11 -11 -11 -15 -2 -3 9 -10 10 -24
3 -14 -8 -19 -7 -19 1 0 8 -4 8 -15 -1 -12 -10 -15 -10 -15 1 0 9 -3 10 -8 4
-8 -12 -62 -14 -62 -2 0 5 -5 5 -11 1 -18 -11 -159 -10 -159 1 0 7 -3 7 -8 0
-8 -12 -82 -14 -82 -2 0 5 -5 5 -10 2 -18 -11 -70 -14 -71 -5 -1 6 -2 16 -3
23 -1 6 2 18 7 25 6 7 6 12 0 12 -9 0 -8 81 2 108 2 6 1 12 -3 12 -8 0 -6 84
3 108 2 6 1 12 -3 12 -4 0 -7 25 -7 55 0 30 4 55 8 55 5 0 5 5 1 12 -10 16
-11 68 -1 68 5 0 5 5 1 12 -10 16 -11 98 -1 98 5 0 5 5 2 11 -11 17 -11 149 0
153 6 3 5 5 -2 5 -6 1 -9 10 -6 20 4 15 12 18 44 16 26 -2 37 0 33 7 -5 7 -2
8 7 3 19 -12 99 -14 99 -3 0 5 5 6 12 2 17 -11 228 -12 228 -1 0 4 5 5 12 1
17 -11 308 -11 308 -1 0 4 4 5 10 2 19 -12 50 -14 50 -4 0 6 9 7 23 3 12 -3
19 -3 15 1 -4 4 6 19 20 33 15 15 29 30 30 35 1 4 2 8 3 10 5 12 2 87 -3 87
-4 0 -5 11 -2 24 3 17 -2 28 -13 35 -10 6 -14 11 -10 11 5 0 1 7 -7 16 -9 8
-20 12 -26 9 -5 -3 -10 0 -10 8 0 11 -89 13 -550 13 -302 1 -555 -3 -562 -8z"/>
</g>
</svg>
