<svg viewBox="0 0 496 496" xmlns="http://www.w3.org/2000/svg">
  <path fill="rgba(189, 241, 255, 0.75)" d="M 315.874 440.86 L 347.211 454.589 L 114.306 453.435 L 114.306 431.029 L 298.003 431.029 Z M 359.991 361.28 L 347.612 352.106 L 331.806 334.411 L 342.417 326.828 L 358.216 342.485 L 423.852 282.939 L 434.007 294.133 L 359.993 361.281 Z M 360.42 251.857 L 338.016 257.899 L 338.016 50.836 L 360.421 50.836 L 360.421 251.856 Z"></path>
  <path fill="currentColor" d="M 360.618 457.639 L 104.336 457.639 L 104.336 420.312 L 62.989 420.312 L 62.989 103.359 L 123.678 42.672 L 368.135 42.672 L 368.135 250.345 C 377.826 250.96 387.262 253.147 396.068 256.612 L 396.068 92.953 L 378.839 92.953 L 378.839 79.742 L 409.28 79.742 L 409.28 263.032 C 416.034 266.991 422.205 271.74 427.567 277.103 C 430.267 279.803 432.812 282.708 435.178 285.789 L 454.092 268.561 L 462.989 278.33 L 362.42 369.929 L 357.759 374.174 L 353.3 369.716 L 321.947 338.367 L 331.29 329.024 L 358.184 355.916 L 426.127 294.032 C 423.915 291.151 421.497 288.402 418.884 285.789 C 404.125 271.031 384.983 262.45 362.539 262.45 C 340.094 262.45 320.953 271.031 306.195 285.788 C 291.437 300.546 282.856 319.688 282.856 342.133 C 282.856 364.578 291.437 383.719 306.195 398.477 C 320.952 413.234 340.093 421.815 362.539 421.815 C 384.984 421.815 404.125 413.234 418.883 398.477 C 433.64 383.719 442.221 364.578 442.221 342.133 C 442.221 333.582 440.976 325.511 438.618 317.979 L 449.948 313.851 C 452.887 322.85 454.504 332.402 454.504 342.133 C 454.504 367.086 443.872 390.856 427.568 407.162 C 411.262 423.467 387.492 434.098 362.539 434.098 C 337.586 434.098 313.815 423.466 297.509 407.162 C 281.205 390.856 270.573 367.086 270.573 342.133 C 270.573 317.179 281.204 293.41 297.509 277.104 C 312.146 262.466 332.8 252.402 354.923 250.496 L 354.923 55.884 L 133.134 55.884 L 133.134 113.014 L 76.201 113.015 L 76.201 407.1 L 288.584 407.1 L 288.584 420.312 L 117.548 420.312 L 117.548 444.427 L 360.618 444.427 Z M 193.102 122.459 L 173.093 142.467 L 173.093 181.408 L 114.579 181.408 L 114.579 122.894 L 173.093 122.894 L 173.093 130.009 L 186.872 116.23 Z M 145.865 169.695 L 129.41 152.186 L 135.827 146.153 L 146.062 157.042 L 164.285 138.818 L 164.285 131.703 L 123.387 131.703 L 123.387 172.599 L 164.285 172.599 L 164.285 151.275 Z M 303.408 126.871 L 325.676 126.871 L 325.676 135.679 L 303.408 135.679 Z M 203.539 126.871 L 276.208 126.871 L 276.208 135.679 L 203.539 135.679 Z M 203.539 169.477 L 325.676 169.477 L 325.676 178.285 L 203.539 178.285 Z M 114.579 256.262 L 114.579 197.752 L 173.093 197.752 L 173.093 204.866 L 186.873 191.088 L 193.101 197.317 L 173.093 217.322 L 173.093 256.262 Z M 164.285 206.56 L 123.387 206.56 L 123.387 247.453 L 164.285 247.453 L 164.285 226.13 L 145.865 244.547 L 129.41 227.043 L 135.827 221.01 L 146.062 231.896 L 164.285 213.674 Z M 119.922 99.802 L 119.922 65.539 L 85.659 99.802 Z M 303.408 201.723 L 325.676 201.723 L 325.676 210.532 L 303.408 210.532 Z M 203.539 201.723 L 276.208 201.723 L 276.208 210.532 L 203.539 210.532 Z M 203.539 244.33 L 310.133 244.33 L 310.133 253.139 L 203.539 253.139 Z M 110.162 388.096 L 110.162 337.487 L 141.176 337.487 L 141.176 388.096 Z M 132.368 346.295 L 118.971 346.295 L 118.971 379.287 L 132.368 379.287 Z M 148.368 388.096 L 148.368 290.467 L 179.383 290.467 L 179.382 388.096 Z M 170.574 299.276 L 157.176 299.276 L 157.176 379.287 L 170.573 379.287 Z M 186.574 388.096 L 186.574 313.488 L 217.589 313.488 L 217.589 388.096 Z M 208.78 322.296 L 195.383 322.296 L 195.383 379.287 L 208.78 379.287 Z M 224.78 388.096 L 224.78 270.311 L 255.79 270.311 L 255.789 388.096 Z M 246.982 279.119 L 233.589 279.119 L 233.589 379.287 L 246.981 379.287 Z"></path>
</svg>
