<svg viewBox="0 0 496 496" xmlns="http://www.w3.org/2000/svg">
  <path fill="rgba(189, 241, 255, 0.75)" class="fil2" d="M425.421 109.918l-56.187 98.167-10.906-15.796 48.76-85.251c5.167-9.365 8.396-20.344 8.396-31.969 0-33.261-21.385-57.829-53.677-61.381 2.584-.323 4.844-.323 7.427-.323 35.521 0 64.583 29.063 64.583 64.584 0 11.625-2.906 22.604-8.396 31.969zm-73.506 302.354c11.14-6.731 20.395-14.028 28.859-22.541 16.866-16.963 27.802-35.924 34.349-57.796 13.153-43.943 6.41-92.493-21.133-137.329l11.079-6.683v-.001c18.572 28.958 29.07 62.754 29.07 99.652 0 28.734-6.3 55.566-17.723 79.569l-.001.003-.07-.003c-14.588 24.785-36.643 42.664-56.714 55.055-19.85 12.255-35.803 17.848-39.212 17.848l-.039-.001a1.458 1.458 0 00-.324.039s-.735.883-.701.736c.043-.185.217-.434.288-.501.066-.062.176-.134.212-.153a.813.813 0 01.085-.04c-.068-.02-.183-.267-.558-.657l-.387-.402.56.539c-.802-.772-1.205-1.464-1.847-2.943-.355-.816-.166-.381-.235-.538l1.973-.888-.618-.967a2.039 2.039 0 00-.039-.058c6.553-4.135 11.704-8.245 16.003-12.902l.001-.001h.001c6.12-2.805 11.648-5.729 17.121-9.037zm42.075-217.666v-.001.001z" />
  <path fill="currentColor" d="M143.147 292.747c-3.634.556-7.208 1.615-10.747 2.242-3.67.65-8.905.168-12.933-1.565-4.925-3.461-10.33-11.311-12.41-17.828-1.078-3.378-1.699-7.778-1.141-10.969.313-1.789 1.384-4.395 2.65-5.904 1.286-1.535 4.057-3.246 6.226-3.728 3.074-.683 15.185-2.729 28.823-3.064 13.532-.332 30.242 1.485 41.369 7.764 2.852 1.8 5.578 4.133 7.207 6.236 1.752 2.263 3.143 5.485 3.531 7.927.403 2.533-.004 5.893-.848 8.144-.829 2.21-2.538 4.803-4.202 6.521-3.18 3.284-8.669 6.214-13.801 7.22-5.01.983-12.084.187-17.775-2.007-.968-.505-1.669-.748-2.687-1.034-.993-.28-3.805-.755-3.874-.767.302.032 4.829-12.493 4.829-12.493s4.164.664 7.394 2.097c3.492 1.661 6.198 1.654 9.524 1.001 3.204-.628 4.979-1.573 6.724-3.375.798-.825.967-1.078 1.27-1.888.288-.768.271-.602.159-1.308-.127-.798-.154-.86-.881-1.799-.851-1.099-1.659-1.876-3.551-2.974-8.249-5.337-21.273-6.128-34.058-5.815-11.106.273-20.782 1.71-24.853 2.471.004.892.237 1.944.783 3.654 1.553 4.866 3.776 8.913 6.511 10.399.487.812.96.316 3.667-.164 2.838-.503 6.53-1.544 10.969-2.279zm178.35-10.713c-8.844 3.404-19.149 5.383-28.199 4.246-9.114-1.144-18.709-6.185-25.669-14.359-3.886-5.007-6.389-10.779-6.752-15.543-.374-4.92 1.223-10.42 3.484-14.443 4.362-7.764 12.577-14.661 19.516-20.217 6.948-5.562 12.4-9.675 14.269-13.124.149-.275.219-.385.251-.44-.605-.995-1.652-1.746-5.377-3.431-7.694-3.478-16.128-2.383-27.64 1.505-11.672 3.943-24.437 10.58-37.908 17.416-13.47 6.837-27.694 13.885-41.362 17.993-13.78 4.142-28.593 5.083-41.366.335-12.048-4.988-21.75-12.902-28.274-21.336-6.572-8.496-11.011-18.449-13.674-27.135-1.849-6.033-3.006-11.814-3.728-16.819-23.301 30.997-36.797 68.981-36.797 111.037 0 30.052 6.891 58.024 19.327 82.854l.873 1.415s13.817 15.146 33.566 29.438c9.937 7.191 20.866 13.854 32.456 18.426 11.557 4.559 22.479 6.864 33.327 4.906 2.261-.322 6.458-1.291 6.458-1.291l1.903 13.319s-4.198.969-6.458 1.292c-13.209 1.917-27.474-.702-40.167-5.71-10.205-4.026-20.23-9.711-29.164-15.694 10.7 11.085 22.816 20.82 36.159 29.086 28.649 17.749 61.451 27.691 97.449 27.691 7.861 0 15.567-.47 23.109-1.387 28.211-3.432 54.122-13.128 77.195-27.941.899-.577 1.793-1.162 2.681-1.753-14.673 7.423-26.748 11.275-30.975 11.275-3.791 0-8.033-2.129-10.184-4.191-2.115-2.026-3.897-5.053-4.865-7.281-1.986-4.567-2.601-9.239-2.601-9.239l-.726-4.566 4.207-2.227c10.914-5.777 17.608-11.798 22.2-18.147 4.397-6.079 5.921-10.984 5.99-16.181.064-4.944-1.056-7.952-3.589-10.909-1.211-1.413-2.065-2.08-3.614-2.826-1.546-.744-2.471-.964-4.235-.964-4.202 0-6.461.617-8.975 1.932-2.386 1.249-4.005 2.74-6.127 4.974-4.243 4.468-9.471 10.71-18.589 14.371-5.401 1.405-11.769.695-16.563-1.382-4.641-2.012-9.425-5.211-13.778-8.201-8.701-5.977-15.492-11.863-22.058-10.749-.583-.129-.053-.17-.541.224-.561.454-.768.74-1.441 1.987-1.473 2.731-2.624 6.632-4.189 11.714-3.125 10.146-8.13 23.839-19.334 33.926l-8.661-10.296c9.139-7.028 12.045-17.554 15.136-27.591 1.543-5.009 3.076-10.19 5.206-14.139 1.129-2.093 2.952-4.548 4.819-6.059 1.941-1.571 5.419-2.81 8.181-3.187 10.872.145 21.925 7.189 30.5 13.08 4.285 2.943 7.977 5.415 11.51 6.946 3.379 1.464 4.961 2.12 6.975.962 5.736-1.183 8.191-5.732 13.071-10.871 2.439-2.569 5.725-5.579 9.645-7.63 3.793-1.985 9.244-3.466 15.213-3.466 3.322 0 7.231.93 10.07 2.296 2.836 1.365 5.916 3.768 7.996 6.195 4.045 4.722 6.921 12.471 6.825 19.839-.094 7.114-2.888 16.075-8.542 23.89-5.458 7.547-12.301 13.454-22.242 19.52.052.142.012.059-.033-.039.09.204.277.632.632 1.448.646 1.486 1.044 2.173 1.836 2.932.755.724.146.451.875.451 3.41 0 19.362-5.593 39.212-17.848 20.079-12.396 42.144-30.285 56.731-55.084l.054.029c11.423-24.003 17.723-50.835 17.723-79.569 0-38.664-11.527-73.92-31.79-103.773l11.159-7.518c21.07 31.502 34.085 70.517 34.085 111.291 0 30.448-7.079 59.695-19.55 85.801l.164.088c-6.461 13.406-14.457 26.098-23.716 37.768a195.887 195.887 0 01-17.74 19.609c-9.452 9.174-19.772 17.399-30.77 24.46-30.74 19.736-68.304 31.461-107.572 31.461-8.217 0-16.365-.518-24.393-1.519-29.05-3.622-56.542-13.569-80.141-28.189a191.672 191.672 0 01-6.784-4.404 197.467 197.467 0 01-29.507-24.248c-35.681-35.682-58.359-86.331-58.359-140.827 0-54.495 22.678-105.145 58.359-140.827 35.682-35.682 86.33-58.36 140.825-58.36 7.457 0 14.928.424 22.087 1.211 7.163.786 20.626 3.35 20.626 3.35.015.002.014.094.001.262l.322.061c.18.025-1.9 13.308-1.816 13.327-.019-.004-6.892-1.387-10.238-1.933a192.022 192.022 0 00-10.041-1.37 186.759 186.759 0 00-20.618-1.13c-27.826 0-53.52 5.888-77.278 16.784-23.74 10.887-42.941 25.138-59.69 43.638.092 4.672-.461 11.281 4.305 26.826 2.423 7.904 5.855 15.61 11.452 22.846 5.647 7.299 12.404 13.182 22.63 17.076 9.668 4.29 20.02 3.021 32.496-.728 12.589-3.784 25.732-10.298 39.145-17.105 13.412-6.807 27.044-13.894 39.692-18.166 12.807-4.326 26.614-5.935 37.488-1.017 5.384 2.434 9.818 5.961 11.668 9.279 1.086 1.948 1.749 4.979 1.625 7.02-.121 1.989-.966 4.552-1.88 6.238-3.187 5.885-10.873 11.763-17.69 17.22-6.824 5.464-13 10.616-16.196 16.304-1.518 2.703-1.992 4.279-1.797 6.832.206 2.711.902 4.788 3.785 8.089 4.664 6.346 9.946 8.611 16.897 9.485 7.015.881 13.986-.369 21.61-3.423zm47.036-43.716c-5.667 10.299-32.614 35.198-32.614 35.198-.178.288-9.726-8.747-9.864-8.669.035-.022 4.158-2.609 5.904-3.883a69.63 69.63 0 004.906-3.927c3.186-2.784 5.891-5.588 8.463-8.601a97.728 97.728 0 0011.408-16.587zM100.267 90.846a288.418 288.418 0 0110.295-7.36c3.491-2.382 10.293-6.7 10.293-6.7.061-.041 7.521 11.151 7.584 11.113-.015.01-6.926 4.404-10.293 6.701-3.372 2.3-6.64 4.634-9.806 7.01zm-40.514 38.518a243.387 243.387 0 0113.455-14.743c4.616-4.657 14.047-13.118 14.047-13.118.097-.094 9.318 9.695 9.367 9.654-.009.008-4.852 4.284-7.144 6.423a236.892 236.892 0 00-6.714 6.513 223.413 223.413 0 00-12.702 13.917zm80.042-62.763c32.614-15.734 69.924-25.215 108.528-25.215 6.01 0 16.792.645 16.792.645.197.006-.344 13.446-.293 13.449 0 0-5.541-.325-8.274-.444a186.867 186.867 0 00-8.225-.196c-36.958 0-71.334 8.603-102.658 23.868zm166.308 42.67c-3.757-8.698-6.06-18.772-6.06-28.866 0-19.141 8.393-37.82 20.942-50.369 12.549-12.55 31.228-20.942 50.368-20.942 19.141 0 37.82 8.392 50.369 20.942 12.549 12.549 20.941 31.228 20.941 50.369 0 12.486-3.445 25.106-9.284 35.311l-56.187 98.167-5.85 10.22-5.832-10.229-43.271-75.886 11.688-6.665 37.437 65.657 50.338-87.948c5.14-8.524 7.507-17.863 7.507-28.627 0-16.38-6.139-29.993-17.001-40.855-10.862-10.863-24.475-17.002-40.855-17.002-16.38 0-29.992 6.139-40.854 17.002-10.863 10.862-17.001 24.475-17.001 40.855 0 8.635 1.572 15.999 4.919 23.447zm16.541 2.388l5.812 10.334-11.726 6.596-5.812-10.334zm80.831-23.796c-6.872 25.647-38.931 34.237-57.706 15.462a34.492 34.492 0 01-8.927-33.317c6.872-25.647 38.931-34.237 57.706-15.462a34.49 34.49 0 018.927 33.317zm-38.673-28.918c-15.389 4.123-20.543 23.359-9.278 34.625a20.697 20.697 0 0019.991 5.356c15.389-4.123 20.543-23.359 9.278-34.625a20.696 20.696 0 00-19.991-5.356z" />
</svg>
