<svg viewBox="0 0 496 496" xmlns="http://www.w3.org/2000/svg">
  <path fill="rgba(189, 241, 255, 0.75)" d="M49.427 117.161l-.122 254.093c9.328.488 16.63.304 16.63.304l.059-249.4c.237-7.114 1.871-13.873 6.615-18.037-2.603-.466-6.043-.793-10.169.165-4.345-.118-11.162 6.033-13.013 12.875zm288.046 260.553h15.071V263.897h-15.071z" />
  <path fill="currentColor" d="M300.354 372.703v52.845H97.558V119.211h-.221c-.693-5.51-2.878-10.992-6.026-15.204h164.37c-7.522 12.979-11.764 27.479-12.31 41.728-.865 22.574 7.469 46.487 23.899 64.586 16.789 17.765 39.995 27.904 62.569 28.769 9.89.379 20.036-1.008 29.839-4.068l8.099 8.75c3.342 3.246 8.487 5.692 12.733 5.854 3.875.148 8.643-1.542 12.168-4.104l58.996 63.695c4.014 3.972 10.063 6.802 15.225 6.998 5.162.197 11.408-2.164 15.714-5.817 3.97-4.013 6.799-10.06 6.996-15.22.197-5.16-2.162-11.405-5.815-15.709l-58.996-63.698c2.826-3.318 4.876-7.942 5.025-11.818.162-4.245-1.883-9.564-4.865-13.144l-8.102-8.746c3.8-9.539 5.959-19.55 6.337-29.439.864-22.573-7.471-46.486-23.901-64.584-16.788-17.765-39.992-27.905-62.565-28.77-22.573-.866-46.486 7.469-64.585 23.898a91.475 91.475 0 00-8.796 9.59H66.524c-7.369.246-15.119 3.459-19.904 8.244-4.785 4.784-7.999 12.534-8.245 19.904v261.439h47.934v54.452h222.658l1.648-1.648 51.883-51.887 1.647-1.647V255.536h-11.249v117.167h-52.542zm40.445 12.645l-28.098 28.1v-28.1h28.098zM135.268 156.286h80v-11.249h-80v11.249zm-1.289 48.736h26.54v-11.249h-26.54v11.249zm43.239 0h64.142v-11.249h-64.142v11.249zm-37.2 50.267h166.619V244.04H140.018v11.249zm141.964 50.267h28.458v-11.249h-28.458v11.249zm-141.964 0H261.88v-11.249H140.018v11.249zm.448 49.199h170.42v-11.249h-170.42v11.249zm255.191-27.458v45h11.249v-45h-11.249zm0-40.159v23.469h11.249v-23.469h-11.249zm-51.61-101.24V174.65h-67.215v.126c-3.996-8.786-5.699-18.295-5.328-27.963a65.177 65.177 0 011.135-9.926h89.095v-11.249H275.96c3.256-8.04 8.315-15.457 15.312-21.816 12.612-11.904 28.276-17.038 44.377-16.421 16.102.617 31.206 7.046 42.99 19.769 11.784 12.722 17.038 28.275 16.421 44.376-.617 16.101-6.933 31.325-19.766 42.989-12.611 11.904-28.275 17.039-44.377 16.423-16.103-.617-31.329-6.933-42.993-19.767a62.485 62.485 0 01-4.472-5.293h60.595zM286.176 98.32c-13.736 12.945-21.498 30.768-22.166 48.206-.668 17.437 5.708 35.803 18.413 49.761 12.945 13.736 30.769 21.497 48.207 22.164 17.437.668 35.803-5.709 49.761-18.414 13.734-12.945 21.495-30.768 22.163-48.204.667-17.437-5.588-35.912-18.413-49.759-12.825-13.847-30.768-21.498-48.204-22.166-17.437-.669-35.802 5.707-49.761 18.412zm108.249 116.872l.032-.03c9.062-8.487 12.796-14.075 17.308-22.043l4.941 5.335c1.78 1.56 1.962 2.826 1.876 5.069-.069 1.81-.263 2.972-1.331 4.098l-.025-.027-32.119 29.753.023.025c-1.207.978-2.38 1.083-4.19 1.014-2.242-.086-3.49-.364-4.911-2.259l-4.938-5.335c8.289-3.889 14.146-7.186 23.302-15.571l.032-.029zM336.297 70.51c20.569.788 39.876 8.761 54.742 25.174 15.229 16.078 21.701 35.939 20.913 56.51-.312 8.149-1.752 16.101-4.397 23.657l-2.293 5.246c-4.241 9.703-10.171 18.226-18.452 25.816l-.029.026a.753.753 0 00-.029.028c-8.202 7.673-17.153 12.937-27.149 16.42l-5.444 1.897c-7.726 2.053-15.752 2.877-23.89 2.565-20.57-.788-39.879-8.759-54.746-25.172-15.228-16.079-21.7-35.941-20.911-56.511.581-15.163 5.066-29.641 13.958-42.159h1.029v-1.415a78.124 78.124 0 0110.186-11.171c16.08-15.228 35.942-21.699 56.512-20.911zM49.624 120.906c-.245-5.071 1.583-8.583 4.95-11.95 3.367-3.367 6.879-5.195 11.95-4.949h3.562c4.461.215 7.795 2.106 10.956 5.268 3.16 3.161 5.051 6.495 5.267 10.956v250.865H49.624v-250.19zm425.917 166.207c2.451 2.284 2.947 4.478 2.827 7.635-.121 3.158-.782 5.307-3.4 7.398-2.287 2.452-4.483 2.949-7.641 2.828-3.159-.12-5.309-.781-7.399-3.4l-58.924-63.618 15.614-14.463 58.923 63.62z" />
</svg>
