<svg viewBox="0 0 496 496" xmlns="http://www.w3.org/2000/svg">
  <g>
    <path d="M421.186 141.15h-19.27V87.452h19.27v53.7m-338.23 257.91H63.682v-220.02h19.271v220.02m405.365-191.5v19.272H386.023v-19.27H488.32" fill="rgba(189,241,255,.75)"/>
    <path d="M331.25 125.41H302.82v-8.867h28.429v8.866zm52.215 81.294h101V147.36h-101v59.343zm-42.698 16.142v-50.235h32.904v-12.663H68.108l-.001 237.806h347.322V234.532l8.866-.095V406.62H59.24V83.45h365.056v54.414h69.592v78.36H373.672v-34.744h-24.037v41.367h-8.868zm32.904-84.982h41.756V92.316H68.108v58.765h305.563v-13.217zm-252.27-12.528H97.318v-8.866H121.4v8.866zm41.726 0h-27.904v-8.866h27.904v8.866zm220.312 4.545h-36.93V111.93h36.93v17.951zm-202.027 62.49H98.085v-8.868h83.327v8.869zm-18.148 31.108h-65.18v-8.869h65.18v8.869zM108.17 360.247v-96.261h48.88v96.26H108.17zm40.012-87.394h-31.144v78.527h31.144v-78.527zm29.482 87.394V233.449h48.878v126.798h-48.878zm40.01-117.93h-31.142V351.38h31.143V242.316zm103.191 117.93V233.449h48.879v126.798h-48.879zm40.01-117.93h-31.143V351.38h31.143V242.316zM248.21 360.245V197.652h48.88v162.594h-48.88zm40.014-153.728h-31.148v144.86h31.146l.002-144.86zm115.682-21.723h68.156v8.868h-68.156v-8.868zm41.876-14.748h-41.876v-8.867h41.876v8.867zm26.28 0h-14.184v-8.867h14.184v8.867z" fill="currentColor"/>
  </g>
</svg>
