<svg viewBox="0 0 90.9 16" xmlns="http://www.w3.org/2000/svg">
<path fill="#ffffff" d="M28,4.9L27.4,6c-0.3-0.3-0.7-0.5-1.1-0.6c-0.4-0.2-0.9-0.2-1.3-0.2c-0.4,0-0.8,0.1-1.2,0.4
	c-0.1,0.1-0.3,0.3-0.3,0.5c-0.1,0.2-0.1,0.4,0,0.6c0.1,0.2,0.2,0.4,0.4,0.4c0.5,0.2,1,0.3,1.5,0.4c0.6,0.1,1.2,0.3,1.7,0.4
	c0.5,0.2,1,0.5,1.2,1c0.3,0.5,0.3,1.1,0.2,1.6c-0.1,0.4-0.2,0.7-0.5,1c-0.2,0.3-0.5,0.5-0.8,0.7c-0.6,0.3-1.3,0.4-1.9,0.4
	c-1.3,0-2.5-0.4-3.6-1.2l0.3-0.6l0.3-0.6c0.8,0.7,1.9,1.1,2.9,1.1c1.1,0,1.7-0.4,1.9-1.1c0-0.2,0-0.4-0.1-0.6
	C27,9.3,26.8,9.1,26.6,9c-0.5-0.2-1-0.3-1.6-0.4c-0.6-0.1-1.2-0.3-1.8-0.5c-0.8-0.3-1.3-1.1-1.2-2c0-0.7,0.3-1.3,0.9-1.7
	c0.6-0.4,1.2-0.7,2-0.6C26,3.8,27.1,4.1,28,4.9z"/>
<path fill="#ffffff" d="M32.9,3.9v7.2h4.2v1.2h-5.6V3.9H32.9z"/>
<path fill="#ffffff" d="M41.4,3.9v8.5h-1.3V3.9H41.4z"/>
<path fill="#ffffff" d="M47.6,3.9c0.7,0,1.5,0.3,2,0.8c0.5,0.5,0.8,1.2,0.8,1.9c0,0.7-0.3,1.4-0.8,1.9c-0.5,0.5-1.3,0.8-2,0.8h-1.7v3.1
	h-1.3V3.9H47.6z M45.9,8h1.7c0.4,0,0.8-0.1,1.2-0.4c0.3-0.3,0.4-0.6,0.4-1c0-0.4-0.1-0.7-0.4-1c-0.3-0.3-0.7-0.4-1.2-0.4h-1.7V8z"/>
<path fill="#ffffff" d="M59.7,4.4c0.6,0.4,1.2,0.9,1.5,1.5l0.3,0.6h-1.5L60,6.3c-0.1-0.2-0.2-0.3-0.3-0.4c-1.2-1-3-1-4.2,0
	c-0.6,0.6-0.9,1.4-0.8,2.2c0,0.8,0.3,1.6,0.8,2.2c1.2,1,3,1,4.2,0c0.1-0.1,0.2-0.2,0.3-0.4c0-0.1,0.1-0.1,0.1-0.2h1.5l-0.3,0.6
	c-0.4,0.6-0.9,1.2-1.5,1.5c-1.2,0.6-2.5,0.7-3.8,0.2c-0.5-0.2-1-0.5-1.3-0.9c-0.4-0.4-0.7-0.9-0.9-1.4c-0.2-0.6-0.3-1.2-0.3-1.8
	c0-0.6,0.1-1.2,0.3-1.8c0.2-0.5,0.5-1,0.9-1.4c0.4-0.4,0.8-0.7,1.3-0.9c0.5-0.2,1.1-0.3,1.6-0.3C58.3,3.8,59,4,59.7,4.4z"/>
<path fill="#ffffff" d="M68.2,3.9l3.5,8.5h-1.4l-0.5-1.1c-0.2-0.5-0.4-0.9-0.5-1.1h-3.5c-0.1,0.2-0.2,0.6-0.5,1.1s-0.4,0.9-0.5,1.1
	h-1.4c1.8-4.4,3-7.2,3.5-8.5H68.2z M66.3,8.9h2.5l-1.2-3.1L66.3,8.9z"/>
<path fill="#ffffff" d="M80.8,4.9L80.1,6c-0.3-0.3-0.7-0.5-1.1-0.7c-0.4-0.2-0.9-0.2-1.3-0.2c-0.4,0-0.8,0.1-1.2,0.4
	c-0.1,0.1-0.3,0.3-0.3,0.5c-0.1,0.2-0.1,0.4,0,0.6c0.1,0.2,0.2,0.4,0.4,0.4c0.5,0.2,1,0.3,1.5,0.4c0.6,0.1,1.2,0.3,1.7,0.4
	c0.5,0.2,1,0.5,1.2,1c0.3,0.5,0.3,1.1,0.2,1.6c-0.1,0.4-0.2,0.7-0.5,1c-0.2,0.3-0.5,0.5-0.8,0.7c-0.6,0.3-1.3,0.4-1.9,0.4
	c-1.3,0-2.5-0.4-3.6-1.2l0.3-0.6l0.3-0.6c0.8,0.7,1.9,1.1,3,1.1c1.1,0,1.7-0.4,1.9-1.1c0-0.2,0-0.4-0.1-0.6
	c-0.1-0.2-0.3-0.4-0.5-0.5c-0.5-0.2-1-0.3-1.6-0.4c-0.6-0.1-1.2-0.3-1.8-0.5c-0.8-0.3-1.3-1.1-1.2-2c0-0.7,0.3-1.3,0.9-1.7
	c0.6-0.4,1.3-0.7,2-0.6C78.7,3.8,79.8,4.1,80.8,4.9z"/>
<path fill="#ffffff" d="M89.8,3.9v1.2h-4.2v2.3h3.8v1.2h-3.8v2.5h4.2v1.2h-5.6V3.9H89.8z"/>
<path fill="#ffffff" d="M9,14.5c-0.3,0-0.6-0.1-0.8-0.2L1.5,9.4C1.2,9.2,1,8.8,1,8.3C1,8,1.1,7.7,1.3,7.5C1.1,7.2,1,6.9,1,6.6
	c0-0.4,0.2-0.8,0.6-1.1L8,1c0.5-0.3,1.1-0.3,1.6,0l6.7,4.8c0.1,0.1,0.1,0.3,0,0.4c-0.1,0.1-0.3,0.1-0.4,0.1L9.2,1.5
	C9,1.4,8.6,1.4,8.4,1.5L1.9,6.1C1.7,6.2,1.6,6.4,1.6,6.6c0,0.2,0,0.3,0.1,0.4l6.4-4.5c0.1-0.1,0.3-0.1,0.4,0.1
	C8.7,2.8,8.6,3,8.5,3.1c0,0,0,0,0,0L2.3,7.5L8.6,12c0.2,0.2,0.6,0.2,0.8,0l5.9-4.3c0.5-0.3,1.2-0.1,1.5,0.4c0.3,0.4,0.2,0.9-0.2,1.2
	l-6.9,5C9.6,14.4,9.3,14.5,9,14.5z M1.8,7.9C1.7,8,1.6,8.2,1.6,8.3c0,0.2,0.1,0.4,0.3,0.6l6.7,4.8c0.2,0.2,0.6,0.2,0.8,0l6.9-5
	c0.1-0.1,0-0.3,0-0.3c-0.1-0.2-0.4-0.3-0.7-0.2l-5.9,4.3c-0.5,0.3-1.1,0.3-1.6,0L1.8,7.9z"/>
</svg>
