<svg id="Layer_1" data-name="Layer 1" xmlns="http://www.w3.org/2000/svg" viewBox="0 0 500 100">
  <path fill="none" stroke="#4fb2ce" stroke-miterlimit="10" stroke-width=".56" d="M210.37 50H499"/>
  <path fill="#334762" d="M212.33 24.43a1.38 1.38 0 0 1 1.55-1.56h5.9a10.55 10.55 0 0 1 2.79.35 6.33 6.33 0 0 1 2.16 1 4.72 4.72 0 0 1 1.42 1.66 4.92 4.92 0 0 1 .51 2.29 5.57 5.57 0 0 1-.59 2.47 4.34 4.34 0 0 1-1.76 1.84v.06a3.86 3.86 0 0 1 1.47.75 4.66 4.66 0 0 1 1 1.11 4.74 4.74 0 0 1 .55 1.32 6 6 0 0 1 .17 1.38 5.64 5.64 0 0 1-.64 2.81 5.16 5.16 0 0 1-1.7 1.86 7.27 7.27 0 0 1-2.46 1 12.64 12.64 0 0 1-2.9.33h-5.9a1.38 1.38 0 0 1-1.55-1.56zm7.5 6.29a1.59 1.59 0 0 0 1.36-.56 2.1 2.1 0 0 0 .43-1.31 1.83 1.83 0 0 0-.44-1.22 1.79 1.79 0 0 0-1.43-.51h-2.47v3.6zm.43 8.16a2 2 0 0 0 1.61-.64 2.21 2.21 0 0 0 .54-1.48 2.14 2.14 0 0 0-.52-1.46 2 2 0 0 0-1.6-.61h-3v4.19zM238.78 24.43a1.38 1.38 0 0 1 1.56-1.56h1.84a1.38 1.38 0 0 1 1.56 1.56v17.14a1.38 1.38 0 0 1-1.56 1.56h-1.84a1.38 1.38 0 0 1-1.56-1.56zM255.78 41.46a2.4 2.4 0 0 1-.4-.38 1.49 1.49 0 0 1-.24-.49 1.41 1.41 0 0 1 0-.58 2.12 2.12 0 0 1 .36-.7l.88-1.28a1.39 1.39 0 0 1 .93-.69 2 2 0 0 1 1.22.32l.61.34c.23.13.51.27.82.41a6.52 6.52 0 0 0 1 .36 5.3 5.3 0 0 0 1.22.14 2.66 2.66 0 0 0 1.63-.41 1.24 1.24 0 0 0 .52-1 1.46 1.46 0 0 0-.66-1.2 9 9 0 0 0-1.66-.94l-2.15-.93a10.34 10.34 0 0 1-2.15-1.23 6.34 6.34 0 0 1-1.66-1.8 4.85 4.85 0 0 1-.67-2.65 5.82 5.82 0 0 1 2.07-4.5 6.88 6.88 0 0 1 2.32-1.25 9.23 9.23 0 0 1 2.87-.43 10.12 10.12 0 0 1 3.25.49 8.94 8.94 0 0 1 2.21 1 1.57 1.57 0 0 1 .71 1 1.91 1.91 0 0 1-.22 1.15l-.69 1.33c-.28.55-.6.83-1 .84a2.33 2.33 0 0 1-1.15-.3c-.47-.23-1-.44-1.46-.64a4.88 4.88 0 0 0-1.74-.29 2.7 2.7 0 0 0-1.7.41 1.24 1.24 0 0 0-.51 1 1.44 1.44 0 0 0 .67 1.22 8.91 8.91 0 0 0 1.65.91c.66.28 1.38.58 2.16.89a10 10 0 0 1 2.18 1.14 6.56 6.56 0 0 1 1.66 1.78 5 5 0 0 1 .66 2.65 6.18 6.18 0 0 1-.47 2.42 5.79 5.79 0 0 1-1.37 2 6.67 6.67 0 0 1-2.24 1.43 8.44 8.44 0 0 1-3 .51 10.41 10.41 0 0 1-2-.2 14.56 14.56 0 0 1-1.82-.49 11.64 11.64 0 0 1-1.5-.66 6.6 6.6 0 0 1-1.14-.7zM280.71 24.43a1.38 1.38 0 0 1 1.56-1.56h1.84a1.38 1.38 0 0 1 1.56 1.56V31H293v-6.57a1.38 1.38 0 0 1 1.56-1.56h1.84a1.38 1.38 0 0 1 1.6 1.56v17.14a1.38 1.38 0 0 1-1.56 1.56h-1.84a1.38 1.38 0 0 1-1.6-1.56V35.2h-7.36v6.37a1.38 1.38 0 0 1-1.56 1.56h-1.84a1.38 1.38 0 0 1-1.56-1.56zM309.35 32.88a10.72 10.72 0 0 1 .76-4.07 9.76 9.76 0 0 1 5.53-5.48 12.12 12.12 0 0 1 8.61 0 10.18 10.18 0 0 1 3.36 2.19 9.9 9.9 0 0 1 2.16 3.29 10.72 10.72 0 0 1 .77 4.07 11.15 11.15 0 0 1-.77 4.16 10.2 10.2 0 0 1-2.16 3.36 10.33 10.33 0 0 1-3.36 2.25 11.71 11.71 0 0 1-8.61 0 10.12 10.12 0 0 1-3.36-2.25 10.23 10.23 0 0 1-2.17-3.4 11.15 11.15 0 0 1-.76-4.12zm5.13 0a6.69 6.69 0 0 0 .41 2.4A5.91 5.91 0 0 0 316 37.2a5.35 5.35 0 0 0 1.73 1.27 5.36 5.36 0 0 0 4.39 0 5.35 5.35 0 0 0 1.73-1.27 5.91 5.91 0 0 0 1.15-1.92 6.91 6.91 0 0 0 .41-2.4 6.37 6.37 0 0 0-.41-2.31 5.68 5.68 0 0 0-1.13-1.85 5.19 5.19 0 0 0-1.73-1.21 5.7 5.7 0 0 0-4.39 0 5.19 5.19 0 0 0-1.75 1.21 5.68 5.68 0 0 0-1.13 1.85 6.16 6.16 0 0 0-.39 2.31zM341.9 24.43a1.38 1.38 0 0 1 1.56-1.56h6.85a6.9 6.9 0 0 1 2.69.52 5.76 5.76 0 0 1 2.08 1.44 6.6 6.6 0 0 1 1.35 2.17 7.87 7.87 0 0 1 .48 2.8 8 8 0 0 1-.48 2.82 6.69 6.69 0 0 1-1.35 2.23 6.06 6.06 0 0 1-2.08 1.5 6.9 6.9 0 0 1-2.69.52h-3.46v4.7a1.37 1.37 0 0 1-1.55 1.56h-1.84a1.38 1.38 0 0 1-1.56-1.56zm7.39 8.19a2.35 2.35 0 0 0 1.94-.78 3.44 3.44 0 0 0 0-4 2.33 2.33 0 0 0-1.87-.75h-2.53v5.5zM367.48 41.46a2.07 2.07 0 0 1-.4-.38 1.49 1.49 0 0 1-.24-.49 1.14 1.14 0 0 1 0-.58 2.07 2.07 0 0 1 .35-.7l.88-1.28a1.41 1.41 0 0 1 .94-.69 2 2 0 0 1 1.21.32l.61.34c.24.13.51.27.82.41a7 7 0 0 0 1 .36 5.24 5.24 0 0 0 1.22.14 2.68 2.68 0 0 0 1.63-.41 1.24 1.24 0 0 0 .52-1 1.45 1.45 0 0 0-.67-1.2 8.89 8.89 0 0 0-1.65-.94l-2.16-.93a10.61 10.61 0 0 1-2.15-1.23 6.64 6.64 0 0 1-1.66-1.8 4.94 4.94 0 0 1-.66-2.65 5.76 5.76 0 0 1 .55-2.54 5.83 5.83 0 0 1 1.52-2 6.78 6.78 0 0 1 2.33-1.21 9.16 9.16 0 0 1 2.86-.43 10.19 10.19 0 0 1 3.26.49 9.12 9.12 0 0 1 2.21 1 1.61 1.61 0 0 1 .71 1 1.92 1.92 0 0 1-.23 1.15l-.68 1.33c-.28.55-.61.83-1 .84a2.29 2.29 0 0 1-1.14-.3c-.48-.23-1-.44-1.46-.64a4.88 4.88 0 0 0-1.74-.29 2.69 2.69 0 0 0-1.7.41 1.24 1.24 0 0 0-.51 1 1.46 1.46 0 0 0 .66 1.22 9.37 9.37 0 0 0 1.66.91l2.15.89a10.07 10.07 0 0 1 2.16 1.19 6.37 6.37 0 0 1 1.65 1.78 4.87 4.87 0 0 1 .67 2.65 6.36 6.36 0 0 1-.47 2.42 5.79 5.79 0 0 1-1.37 2 6.77 6.77 0 0 1-2.22 1.38 8.44 8.44 0 0 1-3 .51 10.51 10.51 0 0 1-2.06-.2 14.4 14.4 0 0 1-1.81-.49 10.54 10.54 0 0 1-1.5-.66 6.18 6.18 0 0 1-1.09-.7zM391.36 33.13a11.1 11.1 0 0 1 .79-4.26 10 10 0 0 1 2.21-3.35 10.23 10.23 0 0 1 3.37-2.19 11.24 11.24 0 0 1 4.28-.79 12.67 12.67 0 0 1 2.28.19 17.24 17.24 0 0 1 1.91.47 9.44 9.44 0 0 1 1.46.58 7.52 7.52 0 0 1 .92.54 1.56 1.56 0 0 1 .72 1 1.79 1.79 0 0 1-.32 1.16l-.74 1.16a1.33 1.33 0 0 1-.92.73 2.21 2.21 0 0 1-1.23-.3 12.76 12.76 0 0 0-1.57-.68 7.72 7.72 0 0 0-4.82.16 5 5 0 0 0-1.81 1.27 5.23 5.23 0 0 0-1.07 1.86 7.15 7.15 0 0 0-.34 2.18 6.52 6.52 0 0 0 .47 2.53 5.81 5.81 0 0 0 1.25 1.91 5.3 5.3 0 0 0 1.8 1.21 5.65 5.65 0 0 0 2.21.43 6.16 6.16 0 0 0 1.87-.26 6.74 6.74 0 0 0 1.3-.56 3.65 3.65 0 0 0 1-.83v-1.38h-1.3a1.38 1.38 0 0 1-1.56-1.56v-1.11a1.38 1.38 0 0 1 1.56-1.55h4.13a1.38 1.38 0 0 1 1.56 1.55v8.33a1.38 1.38 0 0 1-1.56 1.56h-.93a1.71 1.71 0 0 1-1.16-.35 1.12 1.12 0 0 1-.4-.87v-.25a.12.12 0 0 1 0-.09h-.06a5.48 5.48 0 0 1-1.33 1 8.05 8.05 0 0 1-1.69.66 9.09 9.09 0 0 1-2.36.28 10 10 0 0 1-3.75-.72 9.78 9.78 0 0 1-3.19-2.06 9.65 9.65 0 0 1-2.21-3.25 10.86 10.86 0 0 1-.77-4.35zM426.68 24.15a1.71 1.71 0 0 1 1.76-1.28H431a1.69 1.69 0 0 1 1.75 1.28l5.87 17.2a1.38 1.38 0 0 1-.07 1.3 1.41 1.41 0 0 1-1.21.48h-1.87a1.7 1.7 0 0 1-1.75-1.3l-.85-2.95h-6.32l-.85 2.95a1.63 1.63 0 0 1-1.73 1.3h-1.87a1.39 1.39 0 0 1-1.2-.48 1.35 1.35 0 0 1-.07-1.3zm5 10.77L430.56 31q-.13-.48-.27-1.08c-.08-.4-.17-.77-.26-1.13s-.19-.84-.29-1.28h-.06c-.09.44-.18.86-.28 1.28s-.18.73-.27 1.13a10.63 10.63 0 0 1-.27 1.08l-1.16 3.94zM452.15 27.12h-4.59a1.37 1.37 0 0 1-1.56-1.55v-1.14a1.38 1.38 0 0 1 1.56-1.56h14.14a1.38 1.38 0 0 1 1.55 1.56v1.14a1.37 1.37 0 0 1-1.55 1.55h-4.59v14.45a1.38 1.38 0 0 1-1.56 1.56h-1.84a1.38 1.38 0 0 1-1.56-1.56zM473.88 24.43a1.38 1.38 0 0 1 1.55-1.56H485a1.38 1.38 0 0 1 1.56 1.56v1.14a1.37 1.37 0 0 1-1.56 1.55h-6.18v3.69h4.62a1.38 1.38 0 0 1 1.56 1.56v1.13a1.38 1.38 0 0 1-1.56 1.56h-4.62v3.82h6.58a1.38 1.38 0 0 1 1.6 1.56v1.13a1.38 1.38 0 0 1-1.55 1.56h-10a1.38 1.38 0 0 1-1.55-1.56zM494.13 40a1.38 1.38 0 0 1 1.56-1.56h1.53a1.38 1.38 0 0 1 1.56 1.56v1.53a1.38 1.38 0 0 1-1.56 1.56h-1.53a1.38 1.38 0 0 1-1.56-1.56z"/>
  <path fill="#4fb2ce" d="M211.28 66.87a10.75 10.75 0 0 1 .72-4.07 9.84 9.84 0 0 1 5.53-5.48 12.12 12.12 0 0 1 8.61 0 10.05 10.05 0 0 1 3.36 2.2 9.86 9.86 0 0 1 2.16 3.28 10.76 10.76 0 0 1 .77 4.07 11.15 11.15 0 0 1-.73 4.13 10 10 0 0 1-2.16 3.36 10.18 10.18 0 0 1-3.36 2.25 11.71 11.71 0 0 1-8.61 0A9.94 9.94 0 0 1 212 71a11.15 11.15 0 0 1-.72-4.13zm5.13 0a6.74 6.74 0 0 0 .41 2.41 6 6 0 0 0 1.18 1.91 5.21 5.21 0 0 0 1.73 1.27 5.36 5.36 0 0 0 4.39 0 5.31 5.31 0 0 0 1.73-1.27 6 6 0 0 0 1.13-1.91 7 7 0 0 0 .41-2.41 6.45 6.45 0 0 0-.41-2.31 5.63 5.63 0 0 0-1.13-1.84 5.18 5.18 0 0 0-1.73-1.22 5.7 5.7 0 0 0-4.39 0 5.08 5.08 0 0 0-1.73 1.22 5.63 5.63 0 0 0-1.13 1.84 6.24 6.24 0 0 0-.46 2.31zM243.83 58.43a1.38 1.38 0 0 1 1.56-1.56h2.21a2 2 0 0 1 1.86 1.05l5 8.41a11.51 11.51 0 0 1 .6 1.11l.53 1.13c.19.42.38.82.57 1.22h.06l-.12-1.25c0-.36-.06-.74-.08-1.13s0-.76 0-1.08v-7.9a1.38 1.38 0 0 1 1.56-1.56h1.84a1.38 1.38 0 0 1 1.56 1.56v17.14a1.38 1.38 0 0 1-1.56 1.55h-2.21a2 2 0 0 1-1.84-1l-5-8.39a16.253 16.253 0 0 1-1.16-2.24c-.15-.36-.38-.82-.54-1.22h-.05c0 .42.07.84.11 1.25s.07.74.09 1.13 0 .76 0 1.08v7.88a1.37 1.37 0 0 1-1.55 1.55h-1.84a1.38 1.38 0 0 1-1.56-1.55zM273.34 58.43a1.38 1.38 0 0 1 1.56-1.56h1.84a1.38 1.38 0 0 1 1.56 1.56v14.44h6.7a1.38 1.38 0 0 1 1.55 1.56v1.14a1.37 1.37 0 0 1-1.55 1.55h-10.1a1.38 1.38 0 0 1-1.56-1.55zM297.11 58.43a1.38 1.38 0 0 1 1.56-1.56h1.84a1.38 1.38 0 0 1 1.56 1.56v17.14a1.38 1.38 0 0 1-1.56 1.55h-1.84a1.38 1.38 0 0 1-1.56-1.55zM314.48 58.43a1.38 1.38 0 0 1 1.52-1.56h2.21a2 2 0 0 1 1.87 1.05l5 8.41a11.5 11.5 0 0 1 .59 1.11l.54 1.13c.19.42.38.82.57 1.22h.06l-.12-1.25c0-.36-.06-.74-.08-1.13s0-.76 0-1.08v-7.9a1.38 1.38 0 0 1 1.56-1.56h1.8a1.38 1.38 0 0 1 1.56 1.56v17.14a1.38 1.38 0 0 1-1.56 1.55h-2.21a2 2 0 0 1-1.84-1l-5-8.39a11.76 11.76 0 0 1-.62-1.09c-.21-.41-.39-.79-.54-1.15a11.68 11.68 0 0 1-.54-1.22h-.05c0 .42.07.84.11 1.25s.07.74.09 1.13 0 .76 0 1.08v7.88a1.37 1.37 0 0 1-1.55 1.55H316a1.37 1.37 0 0 1-1.55-1.55zM344 58.43a1.38 1.38 0 0 1 1.56-1.56h9.58a1.37 1.37 0 0 1 1.55 1.56v1.13a1.37 1.37 0 0 1-1.55 1.56H349v3.68h4.62a1.38 1.38 0 0 1 1.56 1.56v1.13a1.38 1.38 0 0 1-1.56 1.56H349v3.82h6.57a1.38 1.38 0 0 1 1.56 1.56v1.14a1.38 1.38 0 0 1-1.56 1.55h-10a1.38 1.38 0 0 1-1.57-1.55zM361.41 74a1.38 1.38 0 0 1 1.59-1.52h1.53a1.38 1.38 0 0 1 1.53 1.52v1.53a1.38 1.38 0 0 1-1.56 1.55H363a1.38 1.38 0 0 1-1.56-1.55zM1 27.57v-2.16a2.54 2.54 0 0 1 2.54-2.54H30a2.53 2.53 0 0 1 2.53 2.54v1.53A2.54 2.54 0 0 1 30 29.48H2.91A1.9 1.9 0 0 1 1 27.57z"/>
  <path fill="#334762" d="M8.53 46.46h17A2.54 2.54 0 0 1 28.05 49v1.54a2.53 2.53 0 0 1-2.53 2.53h-17v17.45h22.76a2.54 2.54 0 0 1 2.54 2.54v1.53a2.54 2.54 0 0 1-2.54 2.54H3.54A2.54 2.54 0 0 1 1 74.59V48.4a1.92 1.92 0 0 1 1.93-1.93z"/>
  <path fill="#4fb2ce" d="M157.72 27.57v-2.16a2.53 2.53 0 0 1 2.53-2.54h26.44a2.54 2.54 0 0 1 2.54 2.54v1.53a2.54 2.54 0 0 1-2.54 2.54h-27.07a1.9 1.9 0 0 1-1.9-1.91z"/>
  <path fill="#334762" d="M165.25 46.46h17a2.54 2.54 0 0 1 2.52 2.54v1.54a2.53 2.53 0 0 1-2.54 2.53h-17v17.45H188a2.54 2.54 0 0 1 2.54 2.54v1.53a2.54 2.54 0 0 1-2.54 2.54h-27.75a2.53 2.53 0 0 1-2.53-2.54V48.4a1.92 1.92 0 0 1 1.92-1.93zM53.81 48.39v22.13h9.91a24.65 24.65 0 0 0 8.34-1.34 16.86 16.86 0 0 0 10.45-10.42 25.34 25.34 0 0 0 1.42-8.84 24.34 24.34 0 0 0-1.46-8.8 17.77 17.77 0 0 0-4.11-6.41A16.8 16.8 0 0 0 72 30.79a24.59 24.59 0 0 0-8.26-1.31H48.2a1.91 1.91 0 0 1-1.93-1.91v-2.2a2.54 2.54 0 0 1 2.54-2.54h15.45a33.4 33.4 0 0 1 11.3 1.81 23.91 23.91 0 0 1 8.68 5.26 23.21 23.21 0 0 1 5.57 8.49 31.45 31.45 0 0 1 2 11.49 31.71 31.71 0 0 1-2 11.53A23 23 0 0 1 84.24 70a24.44 24.44 0 0 1-8.68 5.31 32.91 32.91 0 0 1-11.3 1.84H48.81a2.54 2.54 0 0 1-2.54-2.54V48.39a1.93 1.93 0 0 1 1.93-1.92h3.68a1.93 1.93 0 0 1 1.93 1.92zM138.48 46.47h3.68a1.93 1.93 0 0 1 1.93 1.92v26.2a2.54 2.54 0 0 1-2.54 2.54H126.1a32.91 32.91 0 0 1-11.3-1.84 24.44 24.44 0 0 1-8.68-5.29 23 23 0 0 1-5.57-8.53 31.71 31.71 0 0 1-2-11.53 31.45 31.45 0 0 1 2-11.49 23.21 23.21 0 0 1 5.57-8.49 23.91 23.91 0 0 1 8.68-5.26 33.4 33.4 0 0 1 11.3-1.81h15.45a2.54 2.54 0 0 1 2.54 2.54v2.2a1.91 1.91 0 0 1-1.93 1.91h-15.52a24.59 24.59 0 0 0-8.26 1.31 16.8 16.8 0 0 0-6.38 3.86 17.77 17.77 0 0 0-4.11 6.41 24.34 24.34 0 0 0-1.46 8.8 25.34 25.34 0 0 0 1.42 8.84 16.86 16.86 0 0 0 10.45 10.42 24.65 24.65 0 0 0 8.34 1.34h9.92V48.39a1.92 1.92 0 0 1 1.92-1.92z"/>
</svg>
