<svg id="Layer_1" data-name="Layer 1" xmlns="http://www.w3.org/2000/svg" viewBox="0 0 500 100">
  <path fill="none" stroke="#4fb2ce" stroke-miterlimit="10" stroke-width=".56" d="M210.37 49.91H499"/>
  <path fill="#334762" d="M212.33 24.43a1.37 1.37 0 0 1 1.55-1.55h6.86a6.9 6.9 0 0 1 2.69.51 5.88 5.88 0 0 1 2.08 1.44 6.6 6.6 0 0 1 1.35 2.17 7.87 7.87 0 0 1 .48 2.8 8 8 0 0 1-.48 2.82 6.69 6.69 0 0 1-1.35 2.23 6.06 6.06 0 0 1-2.08 1.46 6.72 6.72 0 0 1-2.69.52h-3.46v4.7a1.38 1.38 0 0 1-1.55 1.56h-1.85a1.37 1.37 0 0 1-1.55-1.56zm7.39 8.19a2.35 2.35 0 0 0 1.94-.78 3.07 3.07 0 0 0 .64-2 2.94 2.94 0 0 0-.63-2 2.28 2.28 0 0 0-1.87-.76h-2.52v5.5zM238.27 24.43a1.38 1.38 0 0 1 1.56-1.55h5.5a19 19 0 0 1 2.42.11 6.27 6.27 0 0 1 1.52.37 5.51 5.51 0 0 1 2.73 2.16 6.61 6.61 0 0 1 1 3.73 7.47 7.47 0 0 1-.18 1.63 6.36 6.36 0 0 1-.57 1.56 6.11 6.11 0 0 1-.94 1.36 4.47 4.47 0 0 1-1.34 1v.06c.06.08.13.17.2.28a2.21 2.21 0 0 1 .24.39l.33.55 2.89 5.21a1.27 1.27 0 0 1 .15 1.35 1.31 1.31 0 0 1-1.23.52h-2.15a2 2 0 0 1-1.84-1.1l-3-5.73h-2.32v5.27a1.38 1.38 0 0 1-1.56 1.56h-1.84a1.38 1.38 0 0 1-1.56-1.56zm7.11 7.62a2.7 2.7 0 0 0 1.89-.63 2.42 2.42 0 0 0 .69-1.86 3.31 3.31 0 0 0-.24-1.32 1.65 1.65 0 0 0-.95-.83 4.81 4.81 0 0 0-1.87-.29h-1.67v4.93zM264.9 24.43a1.38 1.38 0 0 1 1.56-1.55h1.84a1.38 1.38 0 0 1 1.56 1.55v17.14a1.38 1.38 0 0 1-1.56 1.56h-1.84a1.38 1.38 0 0 1-1.56-1.56zM281.22 33a10.74 10.74 0 0 1 .78-4.11 10 10 0 0 1 2.18-3.3 10.18 10.18 0 0 1 3.36-2.21 11.09 11.09 0 0 1 4.3-.8 11.95 11.95 0 0 1 4 .65 8.89 8.89 0 0 1 1.44.62 11.79 11.79 0 0 1 1.08.65 1.41 1.41 0 0 1 .66 1 1.78 1.78 0 0 1-.32 1.18l-.7 1.1a1.37 1.37 0 0 1-.93.73 1.71 1.71 0 0 1-1.19-.31 13.26 13.26 0 0 0-1.67-.76 5.8 5.8 0 0 0-2.1-.37 6.24 6.24 0 0 0-2.61.49 5.05 5.05 0 0 0-1.77 1.31 5.27 5.27 0 0 0-1 1.84 7.37 7.37 0 0 0 0 4.36 5.69 5.69 0 0 0 1 2 5.37 5.37 0 0 0 1.79 1.38 6.23 6.23 0 0 0 4.89.06 10.9 10.9 0 0 0 1.79-1 1.38 1.38 0 0 1 2.19.29l.79 1.1a1.84 1.84 0 0 1 .35 1.16 1.44 1.44 0 0 1-.61 1c-.32.25-.7.51-1.16.8a9.19 9.19 0 0 1-1.57.77 12.49 12.49 0 0 1-2 .6 11.06 11.06 0 0 1-2.37.24 11.65 11.65 0 0 1-4.4-.79 9.78 9.78 0 0 1-3.36-2.21 9.67 9.67 0 0 1-2.06-3.33 11.37 11.37 0 0 1-.78-4.14zM310.57 24.43a1.37 1.37 0 0 1 1.55-1.55h9.58a1.38 1.38 0 0 1 1.56 1.55v1.14a1.37 1.37 0 0 1-1.56 1.55h-6.18v3.69h4.62a1.38 1.38 0 0 1 1.56 1.56v1.13a1.38 1.38 0 0 1-1.56 1.56h-4.62v3.82h6.58a1.38 1.38 0 0 1 1.55 1.56v1.13a1.38 1.38 0 0 1-1.55 1.56h-10a1.38 1.38 0 0 1-1.55-1.56zM344.28 24.43a1.38 1.38 0 0 1 1.56-1.55h9.29a1.38 1.38 0 0 1 1.56 1.55v1.14a1.37 1.37 0 0 1-1.56 1.55h-5.9v4.25h4.62a1.38 1.38 0 0 1 1.56 1.56v1.14a1.38 1.38 0 0 1-1.56 1.55h-4.62v6a1.37 1.37 0 0 1-1.55 1.56h-1.84a1.38 1.38 0 0 1-1.56-1.56zM366.57 32.88a10.72 10.72 0 0 1 .77-4.07 9.9 9.9 0 0 1 2.16-3.29 10.18 10.18 0 0 1 3.36-2.19 12.12 12.12 0 0 1 8.61 0 10.18 10.18 0 0 1 3.36 2.19 9.93 9.93 0 0 1 2.17 3.29 10.72 10.72 0 0 1 .76 4.07A11.15 11.15 0 0 1 387 37a9.94 9.94 0 0 1-5.53 5.61 11.71 11.71 0 0 1-8.61 0 10.33 10.33 0 0 1-3.36-2.25 10.2 10.2 0 0 1-2.16-3.36 11.15 11.15 0 0 1-.77-4.12zm5.13 0a6.91 6.91 0 0 0 .41 2.4 5.91 5.91 0 0 0 1.13 1.92 5.35 5.35 0 0 0 1.76 1.27 5.36 5.36 0 0 0 4.39 0 5.35 5.35 0 0 0 1.73-1.27 5.91 5.91 0 0 0 1.13-1.92 6.69 6.69 0 0 0 .41-2.4 6.16 6.16 0 0 0-.41-2.31 5.53 5.53 0 0 0-1.13-1.84 5.08 5.08 0 0 0-1.73-1.22 5.7 5.7 0 0 0-4.39 0 5.08 5.08 0 0 0-1.73 1.22 5.53 5.53 0 0 0-1.13 1.84 6.37 6.37 0 0 0-.44 2.31zM399.12 24.43a1.38 1.38 0 0 1 1.56-1.55h5.49a19.22 19.22 0 0 1 2.43.11 6.18 6.18 0 0 1 1.51.37 5.51 5.51 0 0 1 2.73 2.16 6.62 6.62 0 0 1 1 3.73 7.47 7.47 0 0 1-.18 1.63 7.3 7.3 0 0 1-.57 1.56 6.15 6.15 0 0 1-1 1.36 4.43 4.43 0 0 1-1.33 1v.06l.2.28q.11.15.24.39c.08.16.19.34.32.55l2.89 5.21a1.28 1.28 0 0 1 .16 1.35 1.34 1.34 0 0 1-1.23.52h-2.16A2 2 0 0 1 409.4 42l-3-5.73h-2.32v5.27a1.38 1.38 0 0 1-1.56 1.56h-1.84a1.38 1.38 0 0 1-1.56-1.56zm7.11 7.62a2.69 2.69 0 0 0 1.88-.63 2.39 2.39 0 0 0 .7-1.86 3.31 3.31 0 0 0-.24-1.32 1.65 1.65 0 0 0-.95-.83 4.84 4.84 0 0 0-1.87-.29h-1.67v4.93zM425.75 24.43a1.38 1.38 0 0 1 1.56-1.55h5.89a10.56 10.56 0 0 1 2.79.34 6.47 6.47 0 0 1 2.17 1 4.8 4.8 0 0 1 1.41 1.66 4.92 4.92 0 0 1 .51 2.29 5.57 5.57 0 0 1-.59 2.47 4.34 4.34 0 0 1-1.76 1.84v.06a3.92 3.92 0 0 1 1.47.75 4.55 4.55 0 0 1 1.53 2.43 5.49 5.49 0 0 1 .17 1.38 5.82 5.82 0 0 1-.63 2.82 5.3 5.3 0 0 1-1.7 1.85 7.32 7.32 0 0 1-2.47 1 12.58 12.58 0 0 1-2.9.33h-5.89a1.38 1.38 0 0 1-1.56-1.56zm7.51 6.29a1.62 1.62 0 0 0 1.36-.56 2.16 2.16 0 0 0 .42-1.31 1.83 1.83 0 0 0-.44-1.22 1.79 1.79 0 0 0-1.43-.51h-2.46v3.6zm.42 8.16a2 2 0 0 0 1.61-.64 2.21 2.21 0 0 0 .54-1.48 2.14 2.14 0 0 0-.52-1.46 2 2 0 0 0-1.6-.61h-3v4.19zM452.21 24.43a1.37 1.37 0 0 1 1.55-1.55h9.58a1.38 1.38 0 0 1 1.56 1.55v1.14a1.37 1.37 0 0 1-1.56 1.55h-6.18v3.69h4.62a1.38 1.38 0 0 1 1.56 1.56v1.13a1.38 1.38 0 0 1-1.56 1.56h-4.62v3.82h6.58a1.38 1.38 0 0 1 1.55 1.56v1.13a1.38 1.38 0 0 1-1.55 1.56h-10a1.38 1.38 0 0 1-1.55-1.56zM476.2 41.46a2.4 2.4 0 0 1-.4-.38 1.49 1.49 0 0 1-.24-.49 1.41 1.41 0 0 1 0-.58 2.12 2.12 0 0 1 .36-.7l.87-1.28a1.43 1.43 0 0 1 .94-.69 2 2 0 0 1 1.22.32l.61.34a7.81 7.81 0 0 0 .82.41 5.65 5.65 0 0 0 1 .36 5.3 5.3 0 0 0 1.22.14 2.66 2.66 0 0 0 1.63-.41 1.23 1.23 0 0 0 .52-1 1.46 1.46 0 0 0-.66-1.2 9.35 9.35 0 0 0-1.66-.94l-2.15-.93a10.68 10.68 0 0 1-2.16-1.23 6.45 6.45 0 0 1-1.65-1.8 4.85 4.85 0 0 1-.67-2.65 5.74 5.74 0 0 1 2.07-4.5 6.88 6.88 0 0 1 2.32-1.25 9.23 9.23 0 0 1 2.87-.43 10.12 10.12 0 0 1 3.25.49 9.12 9.12 0 0 1 2.21 1 1.57 1.57 0 0 1 .71 1 1.85 1.85 0 0 1-.23 1.15l-.68 1.33c-.28.55-.6.83-1 .84a2.33 2.33 0 0 1-1.15-.3c-.47-.23-1-.44-1.46-.64a4.88 4.88 0 0 0-1.71-.34 2.7 2.7 0 0 0-1.7.41 1.24 1.24 0 0 0-.51 1 1.46 1.46 0 0 0 .66 1.22 9.37 9.37 0 0 0 1.66.91l2.15.89a9.84 9.84 0 0 1 2.16 1.19 6.37 6.37 0 0 1 1.65 1.78 4.87 4.87 0 0 1 .67 2.65 6.36 6.36 0 0 1-.47 2.42 5.79 5.79 0 0 1-1.37 2 6.77 6.77 0 0 1-2.24 1.43 8.44 8.44 0 0 1-3 .51 10.41 10.41 0 0 1-2.05-.2 14.11 14.11 0 0 1-1.82-.49 11.64 11.64 0 0 1-1.5-.66 6.6 6.6 0 0 1-1.09-.7zM494.19 40a1.38 1.38 0 0 1 1.56-1.56h1.53a1.38 1.38 0 0 1 1.55 1.56v1.53a1.38 1.38 0 0 1-1.55 1.56h-1.53a1.38 1.38 0 0 1-1.56-1.56z"/>
  <path fill="#4fb2ce" d="M211.28 66.87a10.75 10.75 0 0 1 .72-4.07 9.73 9.73 0 0 1 2.17-3.28 9.86 9.86 0 0 1 3.36-2.2 12.12 12.12 0 0 1 8.61 0 9.91 9.91 0 0 1 3.35 2.2 9.73 9.73 0 0 1 2.17 3.28 10.76 10.76 0 0 1 .77 4.07 11.15 11.15 0 0 1-.73 4.13 9.87 9.87 0 0 1-2.17 3.36 10 10 0 0 1-3.35 2.25 11.71 11.71 0 0 1-8.61 0A9.94 9.94 0 0 1 212 71a11.15 11.15 0 0 1-.72-4.13zm5.12 0a6.74 6.74 0 0 0 .42 2.41 6 6 0 0 0 1.18 1.91 5.21 5.21 0 0 0 1.73 1.27 5.36 5.36 0 0 0 4.39 0 5.31 5.31 0 0 0 1.73-1.27 6.15 6.15 0 0 0 1.13-1.91 7 7 0 0 0 .41-2.41 6.45 6.45 0 0 0-.41-2.31 5.81 5.81 0 0 0-1.13-1.84 5.18 5.18 0 0 0-1.73-1.22 5.7 5.7 0 0 0-4.39 0 5.08 5.08 0 0 0-1.73 1.22 5.63 5.63 0 0 0-1.13 1.84 6.24 6.24 0 0 0-.47 2.31zM243.83 58.43a1.38 1.38 0 0 1 1.55-1.56h2.21a2 2 0 0 1 1.87 1.05l5 8.41a9.64 9.64 0 0 1 .59 1.11l.54 1.13.57 1.22h.06l-.12-1.25c0-.36-.06-.74-.08-1.13s0-.76 0-1.08v-7.9a1.38 1.38 0 0 1 1.56-1.56h1.84a1.38 1.38 0 0 1 1.56 1.56v17.14a1.37 1.37 0 0 1-1.56 1.55h-2.21a2 2 0 0 1-1.84-1l-5-8.39a16.253 16.253 0 0 1-1.16-2.24 11.68 11.68 0 0 1-.54-1.22h-.05c0 .42.07.84.11 1.25s.07.74.09 1.13 0 .76 0 1.08v7.88a1.37 1.37 0 0 1-1.55 1.55h-1.85a1.37 1.37 0 0 1-1.55-1.55zM273.34 58.43a1.38 1.38 0 0 1 1.56-1.56h1.84a1.38 1.38 0 0 1 1.56 1.56v14.45h6.7a1.37 1.37 0 0 1 1.56 1.55v1.14a1.37 1.37 0 0 1-1.56 1.55h-10.1a1.37 1.37 0 0 1-1.56-1.55zM297.11 58.43a1.38 1.38 0 0 1 1.56-1.56h1.84a1.38 1.38 0 0 1 1.56 1.56v17.14a1.37 1.37 0 0 1-1.56 1.55h-1.84a1.37 1.37 0 0 1-1.56-1.55zM314.48 58.43a1.37 1.37 0 0 1 1.52-1.56h2.21a2 2 0 0 1 1.87 1.05l5 8.41a11.5 11.5 0 0 1 .59 1.11l.54 1.13.57 1.22h.06l-.12-1.25c0-.36-.07-.74-.08-1.13s0-.76 0-1.08v-7.9a1.38 1.38 0 0 1 1.56-1.56h1.8a1.38 1.38 0 0 1 1.56 1.56v17.14a1.37 1.37 0 0 1-1.56 1.55h-2.21a2 2 0 0 1-1.84-1l-5-8.39a11.76 11.76 0 0 1-.62-1.09c-.21-.41-.39-.79-.54-1.15a11.68 11.68 0 0 1-.54-1.22h-.05c0 .42.07.84.11 1.25s.07.74.08 1.13 0 .76 0 1.08v7.88a1.37 1.37 0 0 1-1.56 1.55H316a1.36 1.36 0 0 1-1.55-1.55zM344 58.43a1.38 1.38 0 0 1 1.56-1.56h9.58a1.38 1.38 0 0 1 1.55 1.56v1.13a1.38 1.38 0 0 1-1.55 1.56H349v3.68h4.62a1.38 1.38 0 0 1 1.56 1.56v1.13a1.38 1.38 0 0 1-1.56 1.56H349v3.83h6.57a1.37 1.37 0 0 1 1.56 1.55v1.14a1.37 1.37 0 0 1-1.56 1.55h-10a1.37 1.37 0 0 1-1.57-1.55zM361.41 74a1.38 1.38 0 0 1 1.59-1.52h1.53a1.38 1.38 0 0 1 1.53 1.52v1.53a1.37 1.37 0 0 1-1.56 1.55H363a1.37 1.37 0 0 1-1.56-1.55zM1 27.5v-2.17a2.54 2.54 0 0 1 2.54-2.54H30a2.54 2.54 0 0 1 2.53 2.54v1.54A2.53 2.53 0 0 1 30 29.4H2.91A1.9 1.9 0 0 1 1 27.5z"/>
  <path fill="#334762" d="M8.53 46.39h17a2.53 2.53 0 0 1 2.53 2.53v1.54A2.54 2.54 0 0 1 25.52 53h-17v17.44h22.76A2.54 2.54 0 0 1 33.82 73v1.54a2.54 2.54 0 0 1-2.54 2.53H3.54A2.54 2.54 0 0 1 1 74.52v-26.2a1.92 1.92 0 0 1 1.93-1.93z"/>
  <path fill="#4fb2ce" d="M157.72 27.5v-2.17a2.54 2.54 0 0 1 2.53-2.54h26.44a2.54 2.54 0 0 1 2.54 2.54v1.54a2.54 2.54 0 0 1-2.54 2.53h-27.07a1.9 1.9 0 0 1-1.9-1.9z"/>
  <path fill="#334762" d="M165.25 46.39h17a2.53 2.53 0 0 1 2.54 2.53v1.54a2.54 2.54 0 0 1-2.56 2.54h-17v17.44H188a2.54 2.54 0 0 1 2.54 2.56v1.54a2.54 2.54 0 0 1-2.54 2.51h-27.75a2.53 2.53 0 0 1-2.53-2.53v-26.2a1.92 1.92 0 0 1 1.92-1.93zM53.81 48.32v22.12h9.91a24.4 24.4 0 0 0 8.34-1.34 16.87 16.87 0 0 0 10.45-10.41 25.38 25.38 0 0 0 1.42-8.84 24.3 24.3 0 0 0-1.46-8.8 17.72 17.72 0 0 0-4.11-6.42A16.92 16.92 0 0 0 72 30.71a24.85 24.85 0 0 0-8.26-1.31H48.2a1.91 1.91 0 0 1-1.93-1.91v-2.2a2.54 2.54 0 0 1 2.54-2.54h15.45a33.65 33.65 0 0 1 11.3 1.81 24 24 0 0 1 8.68 5.26 23.16 23.16 0 0 1 5.57 8.5 31.38 31.38 0 0 1 2 11.49 31.79 31.79 0 0 1-2 11.53 23.12 23.12 0 0 1-5.57 8.53 24.56 24.56 0 0 1-8.68 5.3 32.91 32.91 0 0 1-11.3 1.84H48.81a2.54 2.54 0 0 1-2.54-2.53V48.32a1.93 1.93 0 0 1 1.93-1.93h3.68a1.93 1.93 0 0 1 1.93 1.93zM138.48 46.39h3.68a1.93 1.93 0 0 1 1.93 1.93v26.2a2.54 2.54 0 0 1-2.54 2.53H126.1a32.91 32.91 0 0 1-11.3-1.84 24.56 24.56 0 0 1-8.68-5.3 23.12 23.12 0 0 1-5.57-8.53 31.79 31.79 0 0 1-2-11.53 31.38 31.38 0 0 1 2-11.49 23.16 23.16 0 0 1 5.57-8.5 24 24 0 0 1 8.68-5.26 33.65 33.65 0 0 1 11.3-1.81h15.45a2.54 2.54 0 0 1 2.54 2.54v2.2a1.91 1.91 0 0 1-1.93 1.91h-15.52a24.85 24.85 0 0 0-8.26 1.31 16.92 16.92 0 0 0-6.38 3.88 17.72 17.72 0 0 0-4.11 6.42 24.3 24.3 0 0 0-1.46 8.8 25.38 25.38 0 0 0 1.42 8.84A16.87 16.87 0 0 0 118.3 69.1a24.4 24.4 0 0 0 8.34 1.34h9.92V48.32a1.92 1.92 0 0 1 1.92-1.93z"/>
</svg>
